<svg width="24" height="24" viewBox="0 0 24 24" fill="none" xmlns="http://www.w3.org/2000/svg">
<path d="M21.4997 18H2.50008C2.22383 18 2.00009 18.2238 2.00009 18.5V19.5C2.00009 19.7763 2.22383 20 2.50008 20H21.4997C21.776 20 21.9997 19.7763 21.9997 19.5V18.5C21.9997 18.2238 21.776 18 21.4997 18ZM4.51723 14.6648C4.71347 14.8785 4.98909 14.9998 5.27753 14.9995L9.35682 14.9938C9.67875 14.9934 9.99606 14.9172 10.2831 14.7713L19.3754 10.1573C20.211 9.73328 20.96 9.12798 21.4697 8.33518C22.0419 7.44519 22.1041 6.80114 21.8781 6.34614C21.6528 5.89084 21.105 5.55647 20.0579 5.48834C19.1251 5.42772 18.1973 5.67334 17.3617 6.09708L14.2833 7.65925L7.44905 5.09491C7.36688 5.03956 7.27141 5.00715 7.17252 5.00105C7.07363 4.99496 6.97491 5.01538 6.88656 5.06022L4.83191 6.10302C4.49848 6.27208 4.41786 6.71707 4.67035 6.99457L9.55213 10.0601L6.32688 11.697L4.06599 10.5573C3.98809 10.5181 3.90206 10.4977 3.81482 10.4978C3.72759 10.4979 3.6416 10.5185 3.56381 10.558L2.30977 11.1945C1.98353 11.3601 1.89759 11.792 2.13571 12.072L4.51723 14.6648Z" fill="#04615C"/>
</svg>
