<svg width="24" height="24" viewBox="0 0 24 24" fill="none" xmlns="http://www.w3.org/2000/svg">
<path d="M21.4996 18.0001H2.49999C2.22375 18.0001 2 18.2238 2 18.5001V19.5C2 19.7763 2.22375 20 2.49999 20H21.4996C21.7759 20 21.9996 19.7763 21.9996 19.5V18.5001C21.9996 18.2238 21.7759 18.0001 21.4996 18.0001Z" fill="#04615C"/>
<path d="M3.02812 10.1576C2.80683 9.97257 2.67344 9.70262 2.66029 9.41274L2.49999 5.89587C2.49729 5.52832 2.84052 5.25248 3.19696 5.33505L4.56701 5.65251C4.65198 5.67222 4.73113 5.71164 4.79807 5.76758C4.86501 5.82352 4.91785 5.89442 4.95233 5.97455L5.9534 8.30013L9.47683 9.11683L7.7037 3.6318C7.68838 3.25693 8.03596 2.96762 8.40012 3.05217L10.6447 3.57242C10.7413 3.59479 10.8301 3.64253 10.9019 3.71072C10.9738 3.7789 11.0262 3.86505 11.0536 3.96025L14.6452 10.315L18.0081 11.0946C18.9208 11.3065 19.7897 11.7141 20.4657 12.3596C21.2247 13.0843 21.4298 13.6925 21.3101 14.1862C21.1911 14.68 20.7298 15.1337 19.7196 15.4485C18.8198 15.7288 17.8569 15.7117 16.944 15.5001L7.01142 13.1974C6.69777 13.1249 6.4056 12.9795 6.15856 12.7731L3.02812 10.1576Z" fill="#04615C"/>
</svg>
