<svg width="26" height="11" viewBox="0 0 26 11" fill="none" xmlns="http://www.w3.org/2000/svg">
<path fill-rule="evenodd" clip-rule="evenodd" d="M4.29923 1.93296C4.76659 1.97261 5.23394 1.69506 5.52604 1.34316C5.81327 0.981348 6.00313 0.49563 5.95445 0C5.54064 0.0198252 5.02947 0.277553 4.73738 0.639363C4.46962 0.95161 4.24081 1.45715 4.29923 1.93296ZM9.85835 8.31666V0.589797H12.7063C14.1765 0.589797 15.2037 1.62071 15.2037 3.12742C15.2037 4.63414 14.157 5.67496 12.6673 5.67496H11.0365V8.31666H9.85835ZM5.94908 2.02797C5.53734 2.00384 5.16166 2.15403 4.8582 2.27534C4.66293 2.35341 4.49756 2.41951 4.37175 2.41951C4.23057 2.41951 4.05838 2.34987 3.86505 2.27168L3.86505 2.27168C3.61172 2.16922 3.32209 2.05208 3.01837 2.0577C2.32221 2.06762 1.67472 2.46908 1.31934 3.10844C0.589098 4.38716 1.12948 6.28047 1.83538 7.32129C2.18103 7.83675 2.59483 8.40177 3.14008 8.38194C3.37995 8.37272 3.55251 8.29818 3.73108 8.22104C3.93667 8.13222 4.15024 8.03996 4.48372 8.03996C4.80564 8.03996 5.00987 8.12982 5.20592 8.21607C5.39234 8.29809 5.57135 8.37686 5.83711 8.37203C6.40183 8.36211 6.75721 7.85657 7.10286 7.34112C7.47587 6.7879 7.63979 6.24798 7.66466 6.16604L7.66758 6.15656C7.66698 6.15596 7.66237 6.15381 7.65424 6.15002C7.52955 6.0919 6.57649 5.6477 6.56735 4.45655C6.55817 3.45676 7.32329 2.9502 7.44374 2.87046C7.45107 2.8656 7.45601 2.86233 7.45824 2.86062C6.97141 2.12709 6.21196 2.04779 5.94908 2.02797ZM17.3555 8.37612C18.0955 8.37612 18.782 7.99448 19.0935 7.38981H19.1179V8.31664H20.2084V4.47055C20.2084 3.35539 19.3321 2.63672 17.9836 2.63672C16.7324 2.63672 15.8074 3.3653 15.7734 4.36647H16.8346C16.9223 3.89067 17.3555 3.57842 17.9495 3.57842C18.67 3.57842 19.074 3.92041 19.074 4.54986V4.9761L17.6038 5.06531C16.2358 5.14957 15.4959 5.71954 15.4959 6.7108C15.4959 7.71197 16.2602 8.37612 17.3555 8.37612ZM17.6717 7.45843C17.0437 7.45843 16.6445 7.15114 16.6445 6.68029C16.6445 6.19458 17.0291 5.91207 17.7642 5.86746L19.0738 5.7832V6.21936C19.0738 6.94298 18.4701 7.45843 17.6717 7.45843ZM23.8255 8.619C23.3532 9.97207 22.8129 10.4181 21.664 10.4181C21.5763 10.4181 21.2842 10.4082 21.2161 10.3884V9.46157C21.2891 9.47148 21.4692 9.4814 21.5617 9.4814C22.0826 9.4814 22.3747 9.25836 22.5548 8.67848L22.662 8.33649L20.666 2.71109H21.8976L23.2851 7.27584H23.3094L24.6969 2.71109H25.8945L23.8255 8.619ZM11.0361 1.60156H12.3944C13.4167 1.60156 14.0009 2.15667 14.0009 3.13306C14.0009 4.10945 13.4167 4.66951 12.3895 4.66951H11.0361V1.60156Z" fill="black"/>
</svg>
