<svg width="25" height="24" viewBox="0 0 25 24" fill="none" xmlns="http://www.w3.org/2000/svg">
<path d="M12.667 2C7.15699 2 2.66699 6.49 2.66699 12C2.66699 17.51 7.15699 22 12.667 22C18.177 22 22.667 17.51 22.667 12C22.667 6.49 18.177 2 12.667 2ZM17.017 15.57C16.877 15.81 16.627 15.94 16.367 15.94C16.237 15.94 16.107 15.91 15.987 15.83L12.887 13.98C12.117 13.52 11.547 12.51 11.547 11.62V7.52C11.547 7.11 11.887 6.77 12.297 6.77C12.707 6.77 13.047 7.11 13.047 7.52V11.62C13.047 11.98 13.347 12.51 13.657 12.69L16.757 14.54C17.117 14.75 17.237 15.21 17.017 15.57Z" fill="#555759"/>
</svg>
