<svg width="32" height="32" viewBox="0 0 32 32" fill="none" xmlns="http://www.w3.org/2000/svg">
<mask id="mask0_1182_20658" style="mask-type:alpha" maskUnits="userSpaceOnUse" x="0" y="0" width="32" height="32">
<rect width="32" height="32" fill="#D9D9D9"/>
</mask>
<g mask="url(#mask0_1182_20658)">
<path d="M8.66671 26.6666C6.64448 26.6666 4.91671 25.9666 3.48337 24.5666C2.05004 23.1666 1.33337 21.4555 1.33337 19.4333C1.33337 17.6999 1.8556 16.1555 2.90004 14.7999C3.94449 13.4444 5.31115 12.5777 7.00004 12.1999C7.5556 10.1555 8.66671 8.49992 10.3334 7.23325C12 5.96659 13.8889 5.33325 16 5.33325C18.6 5.33325 20.8056 6.23881 22.6167 8.04992C24.4278 9.86103 25.3334 12.0666 25.3334 14.6666C26.8667 14.8444 28.1389 15.5055 29.15 16.6499C30.1612 17.7944 30.6667 19.1333 30.6667 20.6666C30.6667 22.3333 30.0834 23.7499 28.9167 24.9166C27.75 26.0833 26.3334 26.6666 24.6667 26.6666H8.66671Z" fill="#AAE1F5"/>
</g>
</svg>
