<svg width="24" height="24" viewBox="0 0 24 24" fill="none" xmlns="http://www.w3.org/2000/svg">
<mask id="mask0_1182_20801" style="mask-type:alpha" maskUnits="userSpaceOnUse" x="0" y="0" width="24" height="24">
<rect width="24" height="24" fill="#D9D9D9"/>
</mask>
<g mask="url(#mask0_1182_20801)">
<path d="M17.85 21.2374L16.45 19.8124C16.2666 19.6124 16.175 19.3749 16.175 19.0999C16.175 18.8249 16.2666 18.5957 16.45 18.4124C16.6333 18.2291 16.8625 18.1374 17.1375 18.1374C17.4125 18.1374 17.65 18.2291 17.85 18.4124L19.275 19.8124C19.475 20.0124 19.575 20.2499 19.575 20.5249C19.575 20.7999 19.475 21.0374 19.275 21.2374C19.075 21.4374 18.8375 21.5374 18.5625 21.5374C18.2875 21.5374 18.05 21.4374 17.85 21.2374ZM14.475 18.6624C14.4083 17.6124 14.0291 16.7041 13.3375 15.9374C12.6458 15.1707 11.775 14.6957 10.725 14.5124C10.2083 13.6124 9.51245 12.8999 8.63745 12.3749C7.76245 11.8499 6.79995 11.5457 5.74995 11.4624C6.18328 10.2457 6.92495 9.2749 7.97495 8.5499C9.02495 7.8249 10.2 7.4624 11.5 7.4624C13.1666 7.4624 14.5833 8.04574 15.75 9.2124C16.9166 10.3791 17.5 11.7957 17.5 13.4624C17.5 14.5457 17.2333 15.5499 16.7 16.4749C16.1666 17.3999 15.425 18.1291 14.475 18.6624ZM19.5 14.4624C19.2166 14.4624 18.9791 14.3666 18.7875 14.1749C18.5958 13.9832 18.5 13.7457 18.5 13.4624C18.5 13.1791 18.5958 12.9416 18.7875 12.7499C18.9791 12.5582 19.2166 12.4624 19.5 12.4624H21.5C21.7833 12.4624 22.0208 12.5582 22.2125 12.7499C22.4041 12.9416 22.5 13.1791 22.5 13.4624C22.5 13.7457 22.4041 13.9832 22.2125 14.1749C22.0208 14.3666 21.7833 14.4624 21.5 14.4624H19.5ZM5.14995 8.5124L3.72495 7.0874C3.54162 6.90407 3.44995 6.67074 3.44995 6.3874C3.44995 6.10407 3.54162 5.87074 3.72495 5.6874C3.92495 5.4874 4.16245 5.3874 4.43745 5.3874C4.71245 5.3874 4.94995 5.4874 5.14995 5.6874L6.54995 7.1124C6.73328 7.3124 6.82495 7.5499 6.82495 7.8249C6.82495 8.0999 6.73328 8.32907 6.54995 8.5124C6.36662 8.69574 6.13328 8.7874 5.84995 8.7874C5.56662 8.7874 5.33328 8.69574 5.14995 8.5124ZM16.45 8.5124C16.2666 8.32907 16.175 8.0999 16.175 7.8249C16.175 7.5499 16.2666 7.3124 16.45 7.1124L17.85 5.6874C18.05 5.4874 18.2875 5.3874 18.5625 5.3874C18.8375 5.3874 19.075 5.4874 19.275 5.6874C19.4583 5.87074 19.55 6.10407 19.55 6.3874C19.55 6.67074 19.4583 6.90407 19.275 7.0874L17.85 8.5124C17.6666 8.69574 17.4333 8.7874 17.15 8.7874C16.8666 8.7874 16.6333 8.69574 16.45 8.5124ZM11.5 6.4624C11.2166 6.4624 10.9791 6.36657 10.7875 6.1749C10.5958 5.98324 10.5 5.74574 10.5 5.4624V3.4624C10.5 3.17907 10.5958 2.94157 10.7875 2.7499C10.9791 2.55824 11.2166 2.4624 11.5 2.4624C11.7833 2.4624 12.0208 2.55824 12.2125 2.7499C12.4041 2.94157 12.5 3.17907 12.5 3.4624V5.4624C12.5 5.74574 12.4041 5.98324 12.2125 6.1749C12.0208 6.36657 11.7833 6.4624 11.5 6.4624Z" fill="#FFAC24"/>
<path d="M2.675 20.2874C3.45833 21.0707 4.4 21.4624 5.5 21.4624H10C10.7 21.4624 11.2917 21.2207 11.775 20.7374C12.2583 20.2541 12.5 19.6624 12.5 18.9624C12.5 18.2624 12.2625 17.6707 11.7875 17.1874C11.3125 16.7041 10.725 16.4624 10.025 16.4624H9.425L9.175 15.8874C8.875 15.1374 8.3875 14.5457 7.7125 14.1124C7.0375 13.6791 6.3 13.4624 5.5 13.4624C4.4 13.4624 3.45833 13.8541 2.675 14.6374C1.89167 15.4207 1.5 16.3624 1.5 17.4624C1.5 18.5624 1.89167 19.5041 2.675 20.2874Z" fill="#A8A8A8"/>
</g>
</svg>
