<svg width="26" height="9" viewBox="0 0 26 9" fill="none" xmlns="http://www.w3.org/2000/svg">
<path d="M10.8805 4.70508H0V8.15348H10.8805V4.70508Z" fill="#84B740"/>
<path d="M10.8805 0H0V3.45148H10.8805V0Z" fill="#259BD6"/>
<path d="M21.7605 7.45472L21.7121 7.46394C21.5441 7.49468 21.4827 7.50697 21.3599 7.50697C21.0756 7.50697 20.7397 7.36867 20.7397 6.7171C20.7397 6.38209 20.7978 5.93644 21.3276 5.93644H21.3309C21.4213 5.94259 21.5247 5.95181 21.7185 6.00713L21.7605 6.01942V7.45472ZM21.8477 4.20609L21.7605 4.22146V5.42625L21.683 5.40473L21.6604 5.39859C21.5731 5.374 21.3728 5.31868 21.179 5.31868C20.1194 5.31868 19.8965 6.08089 19.8965 6.72017C19.8965 7.5961 20.4134 8.10015 21.3147 8.10015C21.6959 8.10015 21.977 8.06326 22.2613 7.97413C22.5229 7.89422 22.6166 7.78051 22.6166 7.53771V4.08008C22.3646 4.12311 22.103 4.16613 21.8477 4.20609Z" fill="#27292D"/>
<path d="M24.9112 7.47566L24.866 7.48795L24.7045 7.52791C24.5526 7.56479 24.4169 7.5863 24.3136 7.5863C24.0648 7.5863 23.9162 7.46951 23.9162 7.26974C23.9162 7.14066 23.9776 6.92244 24.3846 6.92244H24.9112V7.47566ZM24.5397 5.30273C24.2134 5.30273 23.8774 5.35806 23.4607 5.48099L23.1893 5.55783L23.2798 6.14179L23.5447 6.0588C23.8225 5.97275 24.1682 5.91742 24.4266 5.91742C24.5429 5.91742 24.8983 5.91742 24.8983 6.28316V6.44298H24.404C23.5027 6.44298 23.0859 6.71652 23.0859 7.30355C23.0859 7.80452 23.4704 8.10572 24.1165 8.10572C24.3168 8.10572 24.5946 8.06884 24.8337 8.01351L24.8466 8.01044L24.8595 8.01351L24.9403 8.02581C25.1923 8.06884 25.4539 8.11186 25.7092 8.15797V6.24014C25.7092 5.6193 25.315 5.30273 24.5397 5.30273Z" fill="#27292D"/>
<path d="M18.6339 7.47566L18.5886 7.48796L18.4271 7.52791C18.2753 7.56479 18.1428 7.58631 18.0362 7.58631C17.7875 7.58631 17.6388 7.46951 17.6388 7.26974C17.6388 7.14066 17.7002 6.92244 18.1041 6.92244H18.6306L18.6339 7.47566ZM18.2656 5.30273C17.9361 5.30273 17.6033 5.35806 17.1866 5.48099L16.9152 5.55783L17.0057 6.14179L17.2706 6.0588C17.5484 5.97275 17.8941 5.91742 18.1525 5.91742C18.2688 5.91742 18.6242 5.91742 18.6242 6.28316V6.44298H18.1299C17.2286 6.44298 16.8086 6.71652 16.8086 7.30355C16.8086 7.80452 17.193 8.10572 17.8424 8.10572C18.0427 8.10572 18.3205 8.06884 18.5596 8.01351L18.5725 8.01044L18.5854 8.01351L18.6629 8.02581C18.9182 8.06884 19.1766 8.11186 19.4318 8.16104V6.24321C19.435 5.61623 19.0409 5.30273 18.2656 5.30273Z" fill="#27292D"/>
<path d="M15.2314 5.30581C14.8212 5.30581 14.4819 5.43489 14.356 5.49021L14.3237 5.50558L14.2946 5.48407C14.1201 5.3642 13.8649 5.30273 13.5095 5.30273C13.1962 5.30273 12.9022 5.34576 12.5824 5.43489C12.3078 5.5148 12.2012 5.64081 12.2012 5.87747V8.06884H13.0605V6.04343L13.1025 6.03114C13.2769 5.97582 13.3803 5.9666 13.4805 5.9666C13.7292 5.9666 13.8552 6.09261 13.8552 6.33849V8.07191H14.7016V6.30468C14.7016 6.20018 14.679 6.13871 14.6758 6.12642L14.6467 6.07417L14.7049 6.04958C14.8341 5.99426 14.9762 5.9666 15.1248 5.9666C15.2961 5.9666 15.4996 6.03114 15.4996 6.33849V8.07191H16.3428V6.25858C16.3428 5.61623 15.9809 5.30581 15.2314 5.30581Z" fill="#27292D"/>
<path d="M24.2779 2.24976C24.1519 2.24976 23.942 2.23747 23.7772 2.20673L23.7287 2.19751V1.01424C23.7287 0.915887 23.7094 0.854418 23.7061 0.845198L23.6803 0.796023L23.7352 0.774509C23.7481 0.768362 23.761 0.765288 23.7772 0.759141L23.7869 0.752994C23.8063 0.746848 23.8257 0.740701 23.845 0.734554C23.8547 0.73148 23.8612 0.728407 23.8677 0.728407C24.0583 0.679232 24.2327 0.685379 24.3102 0.679232H24.3135C24.8401 0.679232 24.9014 1.12488 24.9014 1.45989C24.8982 2.11146 24.559 2.24976 24.2779 2.24976ZM24.2747 0C24.2682 0 24.2586 0 24.2521 0C23.7578 0 23.2506 0.129085 23.0697 0.381107C22.9728 0.504045 22.9179 0.657718 22.9146 0.839051V2.05921C22.9146 2.16371 22.892 2.20366 22.8888 2.21288L22.8597 2.26513H21.2994V1.41686H21.2961C21.2767 0.522486 20.7211 0.0307345 19.9167 0.0307345H19.823H19.1317C19.0993 0.248949 19.0735 0.402622 19.0412 0.620836H19.823C20.2333 0.620836 20.4497 0.952768 20.4497 1.46296V2.31738L20.3948 2.28972C20.3851 2.28664 20.3173 2.26513 20.2107 2.26513H18.8603C18.8344 2.42802 18.8021 2.64009 18.7666 2.85216H22.9179C23.06 2.8245 23.2248 2.79991 23.3669 2.7784C23.5769 2.87675 23.9678 2.92899 24.2359 2.92899C25.1373 2.92899 25.722 2.35426 25.722 1.46911C25.7188 0.593175 25.1534 0.0184407 24.2747 0Z" fill="#27292D"/>
<path d="M16.9953 3.20919H17.0341C17.9354 3.20919 18.3554 2.92644 18.3554 2.22876C18.3554 1.72779 17.971 1.32824 17.3248 1.32824H16.4946C16.2458 1.32824 16.0972 1.19301 16.0972 0.965578C16.0972 0.811905 16.1586 0.621352 16.5657 0.621352H18.3812C18.42 0.39699 18.4394 0.255612 18.4749 0.03125H16.5883C15.7096 0.03125 15.267 0.381623 15.267 0.965578C15.267 1.54339 15.6514 1.84458 16.2975 1.84458H17.1278C17.3765 1.84458 17.5251 2.03206 17.5251 2.22876C17.5251 2.35785 17.4638 2.62524 17.0599 2.62524H16.921L14.2623 2.61909H13.7777C13.3674 2.61909 13.0799 2.3978 13.0799 1.88454V1.53109C13.0799 0.996312 13.3028 0.66438 13.7777 0.66438H14.5659C14.6015 0.436945 14.6241 0.292493 14.6564 0.0773517H13.6743H13.5806C12.7762 0.0773517 12.2206 0.590617 12.2012 1.48499V1.5188V1.88454C12.2206 2.77891 12.7762 3.20612 13.5806 3.20612H13.6743H14.3656L15.8065 3.20919H16.6658H16.9953Z" fill="#27292D"/>
</svg>
