<svg width="26" height="16" viewBox="0 0 26 16" fill="none" xmlns="http://www.w3.org/2000/svg">
<path fill-rule="evenodd" clip-rule="evenodd" d="M12.7243 13.5455C11.3964 14.6501 9.67391 15.3169 7.79167 15.3169C3.592 15.3169 0.1875 11.9974 0.1875 7.90258C0.1875 3.80777 3.592 0.488281 7.79167 0.488281C9.67391 0.488281 11.3964 1.15507 12.7243 2.25961C14.0522 1.15507 15.7747 0.488281 17.6569 0.488281C21.8566 0.488281 25.2611 3.80777 25.2611 7.90258C25.2611 11.9974 21.8566 15.3169 17.6569 15.3169C15.7747 15.3169 14.0522 14.6501 12.7243 13.5455Z" fill="#ED0006"/>
<path fill-rule="evenodd" clip-rule="evenodd" d="M12.7236 13.5459C14.3588 12.186 15.3956 10.1623 15.3956 7.90258C15.3956 5.64282 14.3588 3.61918 12.7236 2.25926C14.0514 1.15493 15.7738 0.488281 17.6558 0.488281C21.8555 0.488281 25.26 3.80777 25.26 7.90258C25.26 11.9974 21.8555 15.3169 17.6558 15.3169C15.7738 15.3169 14.0514 14.6502 12.7236 13.5459Z" fill="#F9A000"/>
<path fill-rule="evenodd" clip-rule="evenodd" d="M12.7243 13.5457C14.3592 12.1858 15.3958 10.1623 15.3958 7.90273C15.3958 5.64317 14.3592 3.61968 12.7243 2.25977C11.0894 3.61968 10.0527 5.64317 10.0527 7.90273C10.0527 10.1623 11.0894 12.1858 12.7243 13.5457Z" fill="#FF5E00"/>
</svg>
