<svg width="255" height="24" viewBox="0 0 255 24" fill="none" xmlns="http://www.w3.org/2000/svg">
<g clip-path="url(#clip0_3_2)">
<path d="M33.5 0.5H2.5C1.39543 0.5 0.5 1.39543 0.5 2.5V21.5C0.5 22.6046 1.39543 23.5 2.5 23.5H33.5C34.6046 23.5 35.5 22.6046 35.5 21.5V2.5C35.5 1.39543 34.6046 0.5 33.5 0.5Z" fill="white" stroke="#D9D9D9"/>
<path fill-rule="evenodd" clip-rule="evenodd" d="M11.6293 16.2591H9.52111L7.94022 10.1933C7.86518 9.91423 7.70586 9.66755 7.4715 9.55129C6.88663 9.25912 6.24214 9.02659 5.53906 8.90932V8.67578H8.93522C9.40393 8.67578 9.75547 9.02659 9.81406 9.43402L10.6343 13.8095L12.7415 8.67578H14.7911L11.6293 16.2591ZM15.9627 16.2591H13.9717L15.6112 8.67578H17.6022L15.9627 16.2591ZM20.1783 10.7757C20.2369 10.3673 20.5884 10.1337 20.9986 10.1337C21.643 10.0751 22.3451 10.1924 22.931 10.4835L23.2825 8.85081C22.6966 8.61727 22.0521 8.5 21.4673 8.5C19.5348 8.5 18.1287 9.55041 18.1287 11.0082C18.1287 12.1173 19.1247 12.6996 19.8278 13.0504C20.5884 13.4002 20.8814 13.6338 20.8228 13.9836C20.8228 14.5082 20.2369 14.7418 19.652 14.7418C18.9489 14.7418 18.2459 14.5669 17.6024 14.2747L17.2509 15.9085C17.9539 16.1996 18.7146 16.3169 19.4177 16.3169C21.5845 16.3745 22.931 15.3251 22.931 13.75C22.931 11.7665 20.1783 11.6502 20.1783 10.7757ZM29.8987 16.2591L28.3178 8.67578H26.6198C26.2682 8.67578 25.9167 8.90932 25.7995 9.25912L22.8721 16.2591H24.9217L25.3308 15.1511H27.8491L28.0835 16.2591H29.8987ZM26.913 10.7168L27.4979 13.5748H25.8584L26.913 10.7168Z" fill="#172B85"/>
<path d="M77.5 0.5H46.5C45.3954 0.5 44.5 1.39543 44.5 2.5V21.5C44.5 22.6046 45.3954 23.5 46.5 23.5H77.5C78.6046 23.5 79.5 22.6046 79.5 21.5V2.5C79.5 1.39543 78.6046 0.5 77.5 0.5Z" fill="white" stroke="#D9D9D9"/>
<path fill-rule="evenodd" clip-rule="evenodd" d="M62.7243 17.5455C61.3964 18.6501 59.6739 19.3169 57.7917 19.3169C53.592 19.3169 50.1875 15.9974 50.1875 11.9026C50.1875 7.80777 53.592 4.48828 57.7917 4.48828C59.6739 4.48828 61.3964 5.15507 62.7243 6.25961C64.0522 5.15507 65.7747 4.48828 67.6569 4.48828C71.8566 4.48828 75.2611 7.80777 75.2611 11.9026C75.2611 15.9974 71.8566 19.3169 67.6569 19.3169C65.7747 19.3169 64.0522 18.6501 62.7243 17.5455Z" fill="#ED0006"/>
<path fill-rule="evenodd" clip-rule="evenodd" d="M62.7236 17.5459C64.3588 16.186 65.3956 14.1623 65.3956 11.9026C65.3956 9.64282 64.3588 7.61918 62.7236 6.25926C64.0514 5.15493 65.7738 4.48828 67.6558 4.48828C71.8555 4.48828 75.26 7.80777 75.26 11.9026C75.26 15.9974 71.8555 19.3169 67.6558 19.3169C65.7738 19.3169 64.0514 18.6502 62.7236 17.5459Z" fill="#F9A000"/>
<path fill-rule="evenodd" clip-rule="evenodd" d="M62.7243 17.5457C64.3592 16.1858 65.3958 14.1623 65.3958 11.9027C65.3958 9.64317 64.3592 7.61968 62.7243 6.25977C61.0894 7.61968 60.0527 9.64317 60.0527 11.9027C60.0527 14.1623 61.0894 16.1858 62.7243 17.5457Z" fill="#FF5E00"/>
<path d="M121.5 0.5H90.5C89.3954 0.5 88.5 1.39543 88.5 2.5V21.5C88.5 22.6046 89.3954 23.5 90.5 23.5H121.5C122.605 23.5 123.5 22.6046 123.5 21.5V2.5C123.5 1.39543 122.605 0.5 121.5 0.5Z" fill="white" stroke="#D9D9D9"/>
<path fill-rule="evenodd" clip-rule="evenodd" d="M97.2992 8.93296C97.7666 8.97261 98.2339 8.69506 98.526 8.34316C98.8133 7.98135 99.0031 7.49563 98.9544 7C98.5406 7.01983 98.0295 7.27755 97.7374 7.63936C97.4696 7.95161 97.2408 8.45715 97.2992 8.93296ZM102.858 15.3167V7.5898H105.706C107.177 7.5898 108.204 8.62071 108.204 10.1274C108.204 11.6341 107.157 12.675 105.667 12.675H104.036V15.3167H102.858ZM98.9491 9.02797C98.5373 9.00384 98.1617 9.15403 97.8582 9.27534C97.6629 9.35341 97.4976 9.41951 97.3718 9.41951C97.2306 9.41951 97.0584 9.34987 96.865 9.27168C96.6117 9.16922 96.3221 9.05208 96.0184 9.0577C95.3222 9.06762 94.6747 9.46908 94.3193 10.1084C93.5891 11.3872 94.1295 13.2805 94.8354 14.3213C95.181 14.8367 95.5948 15.4018 96.1401 15.3819C96.38 15.3727 96.5525 15.2982 96.7311 15.221C96.9367 15.1322 97.1502 15.04 97.4837 15.04C97.8056 15.04 98.0099 15.1298 98.2059 15.2161C98.3923 15.2981 98.5714 15.3769 98.8371 15.372C99.4018 15.3621 99.7572 14.8566 100.103 14.3411C100.476 13.7879 100.64 13.248 100.665 13.166L100.668 13.1566C100.668 13.1566 100.662 13.1538 100.654 13.15C100.53 13.0919 99.5765 12.6477 99.5673 11.4566C99.5582 10.4568 100.323 9.9502 100.444 9.87046C100.451 9.8656 100.456 9.86233 100.458 9.86062C99.9714 9.12709 99.212 9.04779 98.9491 9.02797ZM110.356 15.3761C111.096 15.3761 111.782 14.9945 112.094 14.3898H112.118V15.3166H113.208V11.4706C113.208 10.3554 112.332 9.63672 110.984 9.63672C109.732 9.63672 108.807 10.3653 108.773 11.3665H109.835C109.922 10.8907 110.356 10.5784 110.949 10.5784C111.67 10.5784 112.074 10.9204 112.074 11.5499V11.9761L110.604 12.0653C109.236 12.1496 108.496 12.7195 108.496 13.7108C108.496 14.712 109.26 15.3761 110.356 15.3761ZM110.672 14.4584C110.044 14.4584 109.645 14.1511 109.645 13.6803C109.645 13.1946 110.029 12.9121 110.764 12.8675L112.074 12.7832V13.2194C112.074 13.943 111.47 14.4584 110.672 14.4584ZM116.825 15.619C116.353 16.9721 115.813 17.4181 114.664 17.4181C114.576 17.4181 114.284 17.4082 114.216 17.3884V16.4616C114.289 16.4715 114.469 16.4814 114.562 16.4814C115.083 16.4814 115.375 16.2584 115.555 15.6785L115.662 15.3365L113.666 9.71109H114.898L116.285 14.2758H116.309L117.697 9.71109H118.894L116.825 15.619ZM104.036 8.60156H105.394C106.417 8.60156 107.001 9.15667 107.001 10.1331C107.001 11.1094 106.417 11.6695 105.39 11.6695H104.036V8.60156Z" fill="black"/>
<path d="M165.5 0.5H134.5C133.395 0.5 132.5 1.39543 132.5 2.5V21.5C132.5 22.6046 133.395 23.5 134.5 23.5H165.5C166.605 23.5 167.5 22.6046 167.5 21.5V2.5C167.5 1.39543 166.605 0.5 165.5 0.5Z" fill="white" stroke="#D9D9D9"/>
<path d="M147.881 12.7051H137V16.1535H147.881V12.7051Z" fill="#84B740"/>
<path d="M147.881 8H137V11.4515H147.881V8Z" fill="#259BD6"/>
<path d="M158.761 15.4547L158.712 15.4639C158.544 15.4947 158.483 15.507 158.36 15.507C158.076 15.507 157.74 15.3687 157.74 14.7171C157.74 14.3821 157.798 13.9364 158.328 13.9364H158.331C158.421 13.9426 158.525 13.9518 158.719 14.0071L158.761 14.0194V15.4547ZM158.848 12.2061L158.761 12.2215V13.4262L158.683 13.4047L158.66 13.3986C158.573 13.374 158.373 13.3187 158.179 13.3187C157.119 13.3187 156.896 14.0809 156.896 14.7202C156.896 15.5961 157.413 16.1001 158.315 16.1001C158.696 16.1001 158.977 16.0633 159.261 15.9741C159.523 15.8942 159.617 15.7805 159.617 15.5377V12.0801C159.365 12.1231 159.103 12.1661 158.848 12.2061Z" fill="#27292D"/>
<path d="M161.911 15.4757L161.866 15.488L161.704 15.5279C161.553 15.5648 161.417 15.5863 161.314 15.5863C161.065 15.5863 160.916 15.4695 160.916 15.2697C160.916 15.1407 160.978 14.9224 161.385 14.9224H161.911V15.4757ZM161.54 13.3027C161.213 13.3027 160.877 13.3581 160.461 13.481L160.189 13.5578L160.28 14.1418L160.545 14.0588C160.823 13.9727 161.168 13.9174 161.427 13.9174C161.543 13.9174 161.898 13.9174 161.898 14.2832V14.443H161.404C160.503 14.443 160.086 14.7165 160.086 15.3035C160.086 15.8045 160.47 16.1057 161.116 16.1057C161.317 16.1057 161.595 16.0688 161.834 16.0135L161.847 16.0104L161.86 16.0135L161.94 16.0258C162.192 16.0688 162.454 16.1119 162.709 16.158V14.2401C162.709 13.6193 162.315 13.3027 161.54 13.3027Z" fill="#27292D"/>
<path d="M155.634 15.4757L155.589 15.488L155.427 15.5279C155.275 15.5648 155.143 15.5863 155.036 15.5863C154.787 15.5863 154.639 15.4695 154.639 15.2697C154.639 15.1407 154.7 14.9224 155.104 14.9224H155.631L155.634 15.4757ZM155.266 13.3027C154.936 13.3027 154.603 13.3581 154.187 13.481L153.915 13.5578L154.006 14.1418L154.271 14.0588C154.548 13.9727 154.894 13.9174 155.153 13.9174C155.269 13.9174 155.624 13.9174 155.624 14.2832V14.443H155.13C154.229 14.443 153.809 14.7165 153.809 15.3035C153.809 15.8045 154.193 16.1057 154.842 16.1057C155.043 16.1057 155.32 16.0688 155.56 16.0135L155.572 16.0104L155.585 16.0135L155.663 16.0258C155.918 16.0688 156.177 16.1119 156.432 16.161V14.2432C156.435 13.6162 156.041 13.3027 155.266 13.3027Z" fill="#27292D"/>
<path d="M152.231 13.3058C151.821 13.3058 151.482 13.4349 151.356 13.4902L151.324 13.5056L151.295 13.4841C151.12 13.3642 150.865 13.3027 150.51 13.3027C150.196 13.3027 149.902 13.3458 149.582 13.4349C149.308 13.5148 149.201 13.6408 149.201 13.8775V16.0688H150.061V14.0434L150.102 14.0311C150.277 13.9758 150.38 13.9666 150.48 13.9666C150.729 13.9666 150.855 14.0926 150.855 14.3385V16.0719H151.702V14.3047C151.702 14.2002 151.679 14.1387 151.676 14.1264L151.647 14.0742L151.705 14.0496C151.834 13.9943 151.976 13.9666 152.125 13.9666C152.296 13.9666 152.5 14.0311 152.5 14.3385V16.0719H153.343V14.2586C153.343 13.6162 152.981 13.3058 152.231 13.3058Z" fill="#27292D"/>
<path d="M161.278 10.2498C161.152 10.2498 160.942 10.2375 160.777 10.2067L160.729 10.1975V9.01424C160.729 8.91589 160.709 8.85442 160.706 8.8452L160.68 8.79602L160.735 8.77451C160.748 8.76836 160.761 8.76529 160.777 8.75914L160.787 8.75299C160.806 8.74685 160.826 8.7407 160.845 8.73455C160.855 8.73148 160.861 8.72841 160.868 8.72841C161.058 8.67923 161.233 8.68538 161.31 8.67923H161.313C161.84 8.67923 161.901 9.12488 161.901 9.45989C161.898 10.1115 161.559 10.2498 161.278 10.2498ZM161.275 8C161.268 8 161.259 8 161.252 8C160.758 8 160.251 8.12908 160.07 8.38111C159.973 8.50405 159.918 8.65772 159.915 8.83905V10.0592C159.915 10.1637 159.892 10.2037 159.889 10.2129L159.86 10.2651H158.299V9.41686H158.296C158.277 8.52249 157.721 8.03073 156.917 8.03073H156.823H156.132C156.099 8.24895 156.074 8.40262 156.041 8.62084H156.823C157.233 8.62084 157.45 8.95277 157.45 9.46296V10.3174L157.395 10.2897C157.385 10.2866 157.317 10.2651 157.211 10.2651H155.86C155.834 10.428 155.802 10.6401 155.767 10.8522H159.918C160.06 10.8245 160.225 10.7999 160.367 10.7784C160.577 10.8767 160.968 10.929 161.236 10.929C162.137 10.929 162.722 10.3543 162.722 9.46911C162.719 8.59318 162.153 8.01844 161.275 8Z" fill="#27292D"/>
<path d="M153.995 11.2092H154.034C154.935 11.2092 155.355 10.9264 155.355 10.2288C155.355 9.72779 154.971 9.32824 154.325 9.32824H153.495C153.246 9.32824 153.097 9.19301 153.097 8.96558C153.097 8.81191 153.159 8.62135 153.566 8.62135H155.381C155.42 8.39699 155.439 8.25561 155.475 8.03125H153.588C152.71 8.03125 152.267 8.38162 152.267 8.96558C152.267 9.54339 152.651 9.84458 153.298 9.84458H154.128C154.377 9.84458 154.525 10.0321 154.525 10.2288C154.525 10.3578 154.464 10.6252 154.06 10.6252H153.921L151.262 10.6191H150.778C150.367 10.6191 150.08 10.3978 150.08 9.88454V9.53109C150.08 8.99631 150.303 8.66438 150.778 8.66438H151.566C151.601 8.43694 151.624 8.29249 151.656 8.07735H150.674H150.581C149.776 8.07735 149.221 8.59062 149.201 9.48499V9.5188V9.88454C149.221 10.7789 149.776 11.2061 150.581 11.2061H150.674H151.366L152.806 11.2092H153.666H153.995Z" fill="#27292D"/>
<path d="M209.5 0.5H178.5C177.395 0.5 176.5 1.39543 176.5 2.5V21.5C176.5 22.6046 177.395 23.5 178.5 23.5H209.5C210.605 23.5 211.5 22.6046 211.5 21.5V2.5C211.5 1.39543 210.605 0.5 209.5 0.5Z" fill="white" stroke="#D9D9D9"/>
<mask id="mask0_3_2" style="mask-type:luminance" maskUnits="userSpaceOnUse" x="180" y="8" width="28" height="8">
<path d="M208 8H180V15.7241H208V8Z" fill="white"/>
</mask>
<g mask="url(#mask0_3_2)">
<path d="M182.727 15.7213C183.467 15.7464 184.188 15.5042 184.741 15.0453C184.921 14.8809 185.062 14.6844 185.158 14.4675C185.253 14.2506 185.301 14.0179 185.297 13.7835C185.299 13.5649 185.255 13.348 185.166 13.1456C185.078 12.9431 184.947 12.7591 184.781 12.6043C184.39 12.2603 183.895 12.0351 183.364 11.9583L182.369 11.7781C181.966 11.7029 181.724 11.5114 181.724 11.2485C181.724 10.8992 182.087 10.6589 182.667 10.6589C182.99 10.6472 183.306 10.7552 183.545 10.9593C183.679 11.0956 183.763 11.2677 183.787 11.4513L185.221 11.1509C185.175 10.77 184.987 10.4162 184.689 10.1519C184.142 9.68075 183.419 9.42741 182.675 9.44587C181.981 9.42553 181.304 9.64791 180.777 10.0693C180.585 10.2348 180.432 10.4359 180.328 10.6596C180.224 10.8833 180.171 11.1248 180.173 11.3687C180.166 11.5724 180.203 11.7753 180.283 11.9652C180.363 12.155 180.483 12.3277 180.636 12.4728C181.014 12.7989 181.481 13.0212 181.986 13.115L182.965 13.3328C183.456 13.438 183.674 13.607 183.674 13.9074C183.674 14.283 183.315 14.497 182.723 14.497C182.54 14.5053 182.358 14.4786 182.187 14.4185C182.016 14.3585 181.86 14.2663 181.728 14.1478C181.571 14.0003 181.479 13.8033 181.47 13.5957L180 13.8962C180.045 14.2994 180.242 14.6747 180.556 14.9552C180.845 15.209 181.186 15.4062 181.558 15.5352C181.93 15.6642 182.326 15.7224 182.723 15.7063L182.727 15.7213ZM193.599 15.7063C194.002 15.7167 194.403 15.6528 194.779 15.518C195.155 15.3833 195.499 15.1806 195.791 14.9214C196.164 14.5908 196.433 14.1713 196.568 13.7084L195.057 13.2389C194.987 13.4783 194.848 13.6951 194.655 13.8661C194.371 14.1153 193.993 14.2502 193.603 14.2417C193.391 14.2438 193.18 14.2067 192.983 14.1326C192.786 14.0585 192.607 13.9488 192.455 13.8098C192.138 13.4708 191.972 13.0313 191.992 12.5817C191.97 12.1265 192.141 11.6815 192.467 11.3424C192.772 11.0686 193.18 10.9175 193.603 10.9218C193.792 10.9163 193.979 10.9468 194.155 11.0113C194.33 11.0759 194.489 11.1732 194.622 11.2973C194.811 11.4761 194.949 11.6954 195.025 11.9358L196.56 11.4551C196.432 11.0077 196.184 10.5981 195.839 10.2646C195.538 9.99807 195.183 9.78983 194.795 9.65189C194.407 9.51394 193.994 9.44903 193.579 9.46089C193.148 9.45612 192.719 9.53097 192.319 9.68115C191.919 9.83133 191.554 10.0539 191.247 10.3359C190.634 10.9485 190.295 11.7561 190.3 12.5937C190.304 13.4313 190.652 14.2357 191.271 14.8425C191.895 15.4087 192.732 15.7242 193.603 15.7213L193.599 15.7063ZM188.395 15.7213C188.878 15.7397 189.354 15.6076 189.748 15.3458V14.0614C189.495 14.2233 189.193 14.3073 188.886 14.3018C188.77 14.3216 188.651 14.3148 188.539 14.2818C188.427 14.2489 188.325 14.1907 188.242 14.1126C188.159 14.0344 188.099 13.9386 188.065 13.8334C188.031 13.7282 188.025 13.617 188.048 13.5093V8H186.353V9.62614H189.756V11.1621H186.353V13.8924C186.329 14.374 186.51 14.8447 186.856 15.2031C187.064 15.3812 187.308 15.5188 187.573 15.6077C187.839 15.6967 188.121 15.7354 188.403 15.7213" fill="#4F008C"/>
<path d="M198.225 13.7011V9.62736H198.958V9.94955C199.075 9.81701 199.222 9.71158 199.389 9.64154C199.556 9.5715 199.738 9.53875 199.921 9.54588C200.765 9.54588 201.373 10.1792 201.373 11.0865C201.373 11.9938 200.785 12.6457 199.921 12.6457C199.737 12.6519 199.555 12.618 199.388 12.5467C199.221 12.4753 199.074 12.3685 198.958 12.2346V13.716L198.225 13.7011ZM198.958 10.7384V11.4791C199.027 11.6342 199.143 11.7667 199.292 11.8603C199.441 11.9538 199.616 12.0041 199.795 12.005C200.284 12.005 200.607 11.6605 200.607 11.105C200.607 10.5495 200.284 10.2125 199.795 10.2125C199.615 10.2101 199.44 10.2586 199.29 10.3519C199.141 10.4451 199.025 10.5785 198.958 10.7347" fill="#03BB86"/>
<path d="M201.871 11.5878C201.86 11.3657 201.95 11.1487 202.121 10.9839C202.293 10.8191 202.532 10.7198 202.787 10.7076L204.103 10.5627V10.4178C204.109 10.3833 204.106 10.3481 204.093 10.3149C204.081 10.2816 204.061 10.2512 204.033 10.2261C204.005 10.2009 203.971 10.1816 203.933 10.1696C203.896 10.1576 203.855 10.1533 203.816 10.157H202.15V9.54492H203.816C204.482 9.54492 204.852 9.82744 204.852 10.3345V12.4027H204.103V12.0405C203.977 12.185 203.812 12.3003 203.622 12.3761C203.432 12.4519 203.224 12.4859 203.016 12.4752C202.872 12.4884 202.725 12.475 202.587 12.4358C202.449 12.3967 202.321 12.3327 202.214 12.248C202.106 12.1633 202.019 12.0597 201.96 11.9441C201.901 11.8285 201.871 11.7034 201.871 11.5769V11.5878ZM203.208 11.9391C203.394 11.9426 203.577 11.8993 203.736 11.8146C203.895 11.7298 204.022 11.607 204.103 11.461V11.0988L203.099 11.2219C202.82 11.2545 202.683 11.3813 202.683 11.5841C202.683 11.787 202.879 11.9463 203.224 11.9463" fill="#03BB86"/>
<path d="M205.475 13.0696H205.966C206.042 13.0775 206.118 13.0549 206.179 13.0062C206.24 12.9576 206.282 12.8865 206.295 12.8072L206.385 12.5449L205.349 9.54492H206.049L206.692 11.6323L207.31 9.54492H208L206.862 12.9897C206.707 13.465 206.501 13.716 206.002 13.716H205.475V13.0696Z" fill="#03BB86"/>
</g>
<path d="M253.5 0.5H222.5C221.395 0.5 220.5 1.39543 220.5 2.5V21.5C220.5 22.6046 221.395 23.5 222.5 23.5H253.5C254.605 23.5 255.5 22.6046 255.5 21.5V2.5C255.5 1.39543 254.605 0.5 253.5 0.5Z" fill="white" stroke="#D9D9D9"/>
<path d="M227.708 14.6477H226.521V11.34C226.521 10.2439 227.421 9.35181 228.527 9.35181H230.081V10.5281H228.527C228.075 10.5281 227.708 10.8925 227.708 11.3397V14.6477Z" fill="#024E92"/>
<path d="M227.135 16.9992H227.095C225.47 16.9992 224.148 15.6887 224.148 14.0778V11.7034H225.335V14.0778C225.335 15.0401 226.124 15.8229 227.095 15.8229H227.135C228.105 15.8229 228.895 15.0401 228.895 14.0778V11.7034H230.081V14.0778C230.081 15.6887 228.76 16.9992 227.135 16.9992Z" fill="#024E92"/>
<path d="M225.335 10.5272H224.148V10.3861C224.148 8.51786 225.681 6.99829 227.566 6.99829H229.49V8.17459H227.566C226.336 8.17459 225.335 9.1668 225.335 10.3861V10.5272Z" fill="#024E92"/>
<path d="M247.261 9.72028C246.958 9.48594 246.531 9.36743 245.992 9.36743C245.607 9.36743 245.164 9.4288 244.677 9.54999L244.636 9.56035L244.549 9.58183L244.568 9.66851L244.679 10.1541L244.7 10.2438L244.79 10.2223L244.844 10.2093C245.281 10.1004 245.667 10.0451 245.993 10.0451C246.467 10.0451 246.715 10.1598 246.84 10.2561C247.007 10.3857 247.089 10.5875 247.089 10.8728V12.4545C247.089 12.7203 246.87 12.9362 246.603 12.9362H245.349C245.081 12.9362 244.863 12.7203 244.863 12.4545V12.1208C244.863 11.855 245.081 11.6387 245.349 11.6387H246.431H246.523V11.5482V11.0504V10.9595H246.431H245.349C244.703 10.9595 244.178 11.4807 244.178 12.1208V12.4545C244.178 13.095 244.703 13.6158 245.349 13.6158H246.603C247.248 13.6158 247.774 13.095 247.774 12.4545V10.8728C247.773 10.3711 247.601 9.98339 247.261 9.72028Z" fill="#024E92"/>
<path d="M241.932 9.35974H241.303C240.632 9.35974 240.086 9.90091 240.086 10.566V14.5486V14.6391H240.178H240.679H240.771V14.5486V10.566C240.771 10.2756 241.009 10.039 241.302 10.039H241.932C242.521 10.039 243.001 10.5142 243.001 11.0983V11.6046C243.001 12.1887 242.521 12.6639 241.932 12.6639H241.48H241.389V12.7548V13.2526V13.3435H241.48H241.933C242.9 13.3435 243.687 12.5634 243.687 11.605V11.0987C243.686 10.1395 242.9 9.35974 241.932 9.35974Z" fill="#024E92"/>
<path d="M238.344 9.35962C237.713 9.35962 237.199 9.86895 237.199 10.4949V13.5252V13.6157H237.291H237.793H237.885V13.5252V10.4949C237.885 10.2433 238.091 10.0389 238.344 10.0389H239.37H239.462V9.94835V9.45052V9.35962H239.37H238.344Z" fill="#024E92"/>
<path d="M235.729 9.36353H235.637V9.45442V11.9735C235.637 12.5077 235.199 12.9427 234.66 12.9427H234.108C233.569 12.9427 233.13 12.5077 233.13 11.9735V9.45442V9.36353H233.039H232.537H232.445V9.45442V11.9735C232.445 12.8825 233.191 13.6223 234.108 13.6223H234.661C235.577 13.6223 236.324 12.8828 236.324 11.9735V9.45442V9.36353H236.232H235.729Z" fill="#024E92"/>
<path d="M251.925 11.4625V9.45013V9.35962H251.833H251.331H251.239V9.45013V11.8181C251.239 12.2848 250.856 12.6645 250.386 12.6645H249.955C249.485 12.6645 249.102 12.2848 249.102 11.8181V9.45013V9.35962H249.01H248.508H248.416V9.45013V11.8181C248.416 12.6596 249.107 13.3442 249.955 13.3442H250.385C250.69 13.3442 250.988 13.2536 251.24 13.0864V13.1351C251.24 13.4205 251.158 13.6222 250.991 13.7519C250.866 13.8481 250.617 13.9628 250.143 13.9628C249.818 13.9628 249.431 13.9076 248.995 13.7986L248.941 13.7856L248.85 13.7637L248.83 13.8539L248.72 14.3394L248.7 14.4265L248.787 14.4476L248.829 14.4579C249.316 14.5788 249.758 14.6401 250.144 14.6401C250.683 14.6401 251.11 14.5216 251.413 14.2873C251.753 14.0242 251.926 13.6364 251.926 13.1351V11.5534L251.925 11.4625Z" fill="#024E92"/>
</g>
<defs>
<clipPath id="clip0_3_2">
<rect width="255" height="24" fill="white"/>
</clipPath>
</defs>
</svg>
