<svg width="20" height="20" viewBox="0 0 20 20" fill="none" xmlns="http://www.w3.org/2000/svg">
<path d="M18.3337 6.29171C18.3337 6.84171 17.8837 7.29171 17.3337 7.29171H2.66699C2.11699 7.29171 1.66699 6.84171 1.66699 6.29171V6.28337C1.66699 4.37504 3.20866 2.83337 5.11699 2.83337H14.8753C16.7837 2.83337 18.3337 4.38337 18.3337 6.29171Z" fill="#04615C"/>
<path d="M1.66699 9.54163V13.7166C1.66699 15.625 3.20866 17.1666 5.11699 17.1666H14.8753C16.7837 17.1666 18.3337 15.6166 18.3337 13.7083V9.54163C18.3337 8.99163 17.8837 8.54163 17.3337 8.54163H2.66699C2.11699 8.54163 1.66699 8.99163 1.66699 9.54163ZM6.66699 14.375H5.00033C4.65866 14.375 4.37533 14.0916 4.37533 13.75C4.37533 13.4083 4.65866 13.125 5.00033 13.125H6.66699C7.00866 13.125 7.29199 13.4083 7.29199 13.75C7.29199 14.0916 7.00866 14.375 6.66699 14.375ZM12.0837 14.375H8.75033C8.40866 14.375 8.12533 14.0916 8.12533 13.75C8.12533 13.4083 8.40866 13.125 8.75033 13.125H12.0837C12.4253 13.125 12.7087 13.4083 12.7087 13.75C12.7087 14.0916 12.4253 14.375 12.0837 14.375Z" fill="#04615C"/>
</svg>
