<svg width="25" height="24" viewBox="0 0 25 24" fill="none" xmlns="http://www.w3.org/2000/svg">
<path d="M11.4068 19.11V4.89C11.4068 3.54 10.8368 3 9.39684 3H5.76684C4.32684 3 3.75684 3.54 3.75684 4.89V19.11C3.75684 20.46 4.32684 21 5.76684 21H9.39684C10.8368 21 11.4068 20.46 11.4068 19.11Z" fill="#05615C"/>
<path d="M21.7564 19.11V4.89C21.7564 3.54 21.1864 3 19.7464 3H16.1164C14.6864 3 14.1064 3.54 14.1064 4.89V19.11C14.1064 20.46 14.6764 21 16.1164 21H19.7464C21.1864 21 21.7564 20.46 21.7564 19.11Z" fill="#05615C"/>
</svg>
