<svg width="32" height="32" viewBox="0 0 32 32" fill="none" xmlns="http://www.w3.org/2000/svg">
<mask id="mask0_1584_119279" style="mask-type:alpha" maskUnits="userSpaceOnUse" x="0" y="0" width="32" height="32">
<rect width="32" height="32" fill="#D9D9D9"/>
</mask>
<g mask="url(#mask0_1584_119279)">
<path d="M8.00002 25.3334C7.62224 25.3334 7.30558 25.2056 7.05002 24.9501C6.79446 24.6945 6.66669 24.3779 6.66669 24.0001C6.66669 23.6223 6.79446 23.3056 7.05002 23.0501C7.30558 22.7945 7.62224 22.6667 8.00002 22.6667C8.3778 22.6667 8.69446 22.7945 8.95002 23.0501C9.20558 23.3056 9.33335 23.6223 9.33335 24.0001C9.33335 24.3779 9.20558 24.6945 8.95002 24.9501C8.69446 25.2056 8.3778 25.3334 8.00002 25.3334ZM24 25.3334C23.6222 25.3334 23.3056 25.2056 23.05 24.9501C22.7945 24.6945 22.6667 24.3779 22.6667 24.0001C22.6667 23.6223 22.7945 23.3056 23.05 23.0501C23.3056 22.7945 23.6222 22.6667 24 22.6667C24.3778 22.6667 24.6945 22.7945 24.95 23.0501C25.2056 23.3056 25.3334 23.6223 25.3334 24.0001C25.3334 24.3779 25.2056 24.6945 24.95 24.9501C24.6945 25.2056 24.3778 25.3334 24 25.3334ZM12 30.6667C11.6222 30.6667 11.3056 30.539 11.05 30.2834C10.7945 30.0279 10.6667 29.7112 10.6667 29.3334C10.6667 28.9556 10.7945 28.639 11.05 28.3834C11.3056 28.1279 11.6222 28.0001 12 28.0001C12.3778 28.0001 12.6945 28.1279 12.95 28.3834C13.2056 28.639 13.3334 28.9556 13.3334 29.3334C13.3334 29.7112 13.2056 30.0279 12.95 30.2834C12.6945 30.539 12.3778 30.6667 12 30.6667ZM16 25.3334C15.6222 25.3334 15.3056 25.2056 15.05 24.9501C14.7945 24.6945 14.6667 24.3779 14.6667 24.0001C14.6667 23.6223 14.7945 23.3056 15.05 23.0501C15.3056 22.7945 15.6222 22.6667 16 22.6667C16.3778 22.6667 16.6945 22.7945 16.95 23.0501C17.2056 23.3056 17.3334 23.6223 17.3334 24.0001C17.3334 24.3779 17.2056 24.6945 16.95 24.9501C16.6945 25.2056 16.3778 25.3334 16 25.3334ZM20 30.6667C19.6222 30.6667 19.3056 30.539 19.05 30.2834C18.7945 30.0279 18.6667 29.7112 18.6667 29.3334C18.6667 28.9556 18.7945 28.639 19.05 28.3834C19.3056 28.1279 19.6222 28.0001 20 28.0001C20.3778 28.0001 20.6945 28.1279 20.95 28.3834C21.2056 28.639 21.3334 28.9556 21.3334 29.3334C21.3334 29.7112 21.2056 30.0279 20.95 30.2834C20.6945 30.539 20.3778 30.6667 20 30.6667ZM10 21.3334C7.9778 21.3334 6.25002 20.6167 4.81669 19.1834C3.38335 17.7501 2.66669 16.0223 2.66669 14.0001C2.66669 12.1556 3.2778 10.5445 4.50002 9.16675C5.72224 7.78897 7.23335 6.97786 9.03335 6.73341C9.74446 5.46675 10.7167 4.4723 11.95 3.75008C13.1834 3.02786 14.5334 2.66675 16 2.66675C18 2.66675 19.7389 3.30564 21.2167 4.58341C22.6945 5.86119 23.5889 7.45564 23.9 9.36675C25.4334 9.50008 26.7222 10.1334 27.7667 11.2667C28.8111 12.4001 29.3334 13.7556 29.3334 15.3334C29.3334 17.0001 28.75 18.4167 27.5834 19.5834C26.4167 20.7501 25 21.3334 23.3334 21.3334H10Z" fill="#A8A8A8"/>
</g>
</svg>
