<svg width="28" height="8" viewBox="0 0 28 8" fill="none" xmlns="http://www.w3.org/2000/svg">
<g clip-path="url(#clip0_4961_107216)">
<path d="M2.72709 7.72132C3.46683 7.74639 4.18835 7.50422 4.7412 7.04534C4.92051 6.88094 5.06221 6.68437 5.15776 6.46747C5.25331 6.2506 5.30069 6.01793 5.29709 5.78348C5.29931 5.56487 5.25488 5.34804 5.16635 5.1456C5.07784 4.94315 4.94701 4.75912 4.78149 4.60426C4.38973 4.26031 3.89536 4.03509 3.36357 3.9583L2.36859 3.77805C1.96577 3.70293 1.72408 3.51139 1.72408 3.24852C1.72408 2.89924 2.08662 2.6589 2.66667 2.6589C2.99043 2.64719 3.30605 2.75515 3.54483 2.95934C3.67888 3.09556 3.76347 3.26771 3.78653 3.45132L5.22056 3.15088C5.17483 2.76995 4.98656 2.41625 4.68885 2.15191C4.14187 1.68075 3.41915 1.42741 2.67475 1.44587C1.981 1.42553 1.3042 1.64791 0.777445 2.06929C0.585368 2.23481 0.432427 2.43586 0.328387 2.6596C0.224347 2.88335 0.171498 3.12484 0.173213 3.3687C0.166046 3.57241 0.20342 3.77533 0.283059 3.96517C0.362699 4.15499 0.482939 4.32771 0.636459 4.47282C1.01405 4.79893 1.48112 5.02121 1.98591 5.115L2.96477 5.33282C3.45621 5.43799 3.67373 5.60698 3.67373 5.90742C3.67373 6.28296 3.31523 6.49702 2.72307 6.49702C2.54043 6.50532 2.3579 6.47861 2.18676 6.41853C2.01563 6.35846 1.85953 6.26632 1.7281 6.14777C1.57108 6.00033 1.47908 5.80332 1.4703 5.59571L0 5.89616C0.0449965 6.29938 0.241978 6.67465 0.555893 6.95521C0.845008 7.20901 1.18573 7.40623 1.55795 7.53522C1.93017 7.66424 2.32634 7.72239 2.72307 7.7063L2.72709 7.72132ZM13.5993 7.7063C14.002 7.71674 14.403 7.65275 14.7791 7.51803C15.1552 7.38333 15.499 7.18056 15.7906 6.9214C16.1637 6.59078 16.4325 6.17129 16.5681 5.70839L15.0575 5.23893C14.9869 5.47828 14.8477 5.69513 14.6546 5.86611C14.3708 6.11532 13.9931 6.25025 13.6033 6.24165C13.3908 6.24379 13.18 6.20674 12.983 6.13262C12.786 6.05849 12.6066 5.94878 12.4553 5.80977C12.1379 5.47078 11.9721 5.03125 11.992 4.58173C11.9701 4.12651 12.1408 3.6815 12.4673 3.34241C12.772 3.06855 13.1801 2.91746 13.6033 2.92179C13.7917 2.91629 13.9792 2.94676 14.1545 3.01134C14.3298 3.07593 14.489 3.17325 14.6224 3.29733C14.8108 3.47614 14.9491 3.6954 15.0253 3.93577L16.56 3.45508C16.4317 3.0077 16.1835 2.59808 15.8389 2.26457C15.5379 1.99807 15.1832 1.78983 14.7953 1.65189C14.4074 1.51394 13.9941 1.44903 13.5791 1.46089C13.1477 1.45612 12.7195 1.53097 12.3192 1.68115C11.9189 1.83133 11.5544 2.05386 11.2468 2.33593C10.6339 2.94848 10.2952 3.75607 10.2997 4.59369C10.3042 5.43134 10.6516 6.23575 11.2709 6.84254C11.8951 7.40874 12.7325 7.72424 13.6033 7.72132L13.5993 7.7063ZM8.3948 7.72132C8.87816 7.73966 9.35435 7.60755 9.74829 7.34578V6.0614C9.49483 6.22329 9.19344 6.30733 8.88624 6.30175C8.77045 6.32163 8.6512 6.31481 8.53891 6.28184C8.42661 6.24885 8.32469 6.19075 8.24203 6.11258C8.15939 6.0344 8.09851 5.93857 8.06475 5.83339C8.03101 5.72825 8.02539 5.61699 8.04838 5.50933V0H6.35251V1.62614H9.75635V3.16214H6.35251V5.8924C6.32931 6.37396 6.51016 6.84473 6.85603 7.20308C7.06384 7.38116 7.30771 7.51875 7.57333 7.60773C7.83896 7.69673 8.12099 7.73535 8.40285 7.72132" fill="#4F008C"/>
<path d="M18.2246 5.70113V1.62736H18.9583V1.94955C19.0746 1.81701 19.2221 1.71158 19.3891 1.64154C19.5561 1.5715 19.7381 1.53875 19.9208 1.54588C20.765 1.54588 21.3725 2.17917 21.3725 3.08651C21.3725 3.99385 20.7848 4.64567 19.9208 4.64567C19.7375 4.6519 19.555 4.61801 19.388 4.54667C19.2209 4.47531 19.0738 4.36847 18.9583 4.23457V5.71596L18.2246 5.70113ZM18.9583 2.73838V3.47907C19.0273 3.63415 19.1434 3.76673 19.2921 3.86027C19.4408 3.95378 19.6156 4.00411 19.7946 4.00496C20.2838 4.00496 20.6072 3.66054 20.6072 3.10503C20.6072 2.54951 20.2838 2.2125 19.7946 2.2125C19.6154 2.21006 19.4395 2.25865 19.2902 2.35186C19.141 2.44507 19.0253 2.57854 18.9583 2.73469" fill="#03BB86"/>
<path d="M21.8711 3.58776C21.8597 3.36568 21.9496 3.14865 22.1211 2.98385C22.2926 2.81906 22.532 2.71979 22.7871 2.7076L24.1029 2.56271V2.41784C24.1088 2.38334 24.1056 2.34812 24.0935 2.31487C24.0813 2.28163 24.0606 2.25124 24.0329 2.22606C24.0051 2.20087 23.9711 2.18156 23.9334 2.1696C23.8958 2.15763 23.8554 2.15334 23.8156 2.15705H22.1501V1.54492H23.8156C24.4818 1.54492 24.8524 1.82744 24.8524 2.33453V4.40273H24.1029V4.04052C23.9767 4.18503 23.8116 4.3003 23.622 4.37612C23.4325 4.45191 23.2244 4.48592 23.0161 4.47516C22.8715 4.48837 22.7253 4.47496 22.587 4.43582C22.4488 4.39667 22.3215 4.33269 22.2135 4.24797C22.1055 4.16326 22.0192 4.05973 21.9602 3.94411C21.9013 3.8285 21.8709 3.70339 21.8711 3.57689V3.58776ZM23.2077 3.93911C23.3939 3.94257 23.5773 3.89934 23.7361 3.81457C23.8949 3.72978 24.0222 3.60704 24.1029 3.46098V3.09879L23.0994 3.22193C22.8204 3.25452 22.683 3.3813 22.683 3.58414C22.683 3.78697 22.8787 3.94633 23.2243 3.94633" fill="#03BB86"/>
<path d="M25.475 5.06957H25.9662C26.0423 5.07752 26.1185 5.05489 26.1794 5.00623C26.2403 4.9576 26.2816 4.88651 26.2949 4.80722L26.3852 4.54488L25.3486 1.54492H26.0493L26.692 3.63233L27.3096 1.54492H27.9995L26.8619 4.98974C26.7067 5.465 26.5007 5.71596 26.0023 5.71596H25.475V5.06957Z" fill="#03BB86"/>
</g>
<defs>
<clipPath id="clip0_4961_107216">
<rect width="28" height="7.72414" fill="white"/>
</clipPath>
</defs>
</svg>
