<svg width="24" height="24" viewBox="0 0 24 24" fill="none" xmlns="http://www.w3.org/2000/svg">
<mask id="mask0_1584_119240" style="mask-type:alpha" maskUnits="userSpaceOnUse" x="0" y="0" width="24" height="24">
<rect width="24" height="24" fill="#D9D9D9"/>
</mask>
<g mask="url(#mask0_1584_119240)">
<path d="M7.5 16C5.98333 16 4.6875 15.4625 3.6125 14.3875C2.5375 13.3125 2 12.0167 2 10.5C2 9.11667 2.45833 7.90833 3.375 6.875C4.29167 5.84167 5.425 5.23333 6.775 5.05C7.30833 4.1 8.0375 3.35417 8.9625 2.8125C9.8875 2.27083 10.9 2 12 2C13.5 2 14.8042 2.47917 15.9125 3.4375C17.0208 4.39583 17.6917 5.59167 17.925 7.025C19.075 7.125 20.0417 7.6 20.825 8.45C21.6083 9.3 22 10.3167 22 11.5C22 12.75 21.5625 13.8125 20.6875 14.6875C19.8125 15.5625 18.75 16 17.5 16H7.5Z" fill="#AAE1F5"/>
<path d="M13.9 21.325L13 22.35C12.7167 22.6833 12.6625 23.0417 12.8375 23.425C13.0125 23.8083 13.3167 24 13.75 24C13.8833 24 14.0208 23.9708 14.1625 23.9125C14.3042 23.8542 14.4167 23.7667 14.5 23.65L16.25 21.65C16.4667 21.4 16.5417 21.1167 16.475 20.8C16.4083 20.4833 16.2333 20.25 15.95 20.1L15.1 19.675L16 18.65C16.2833 18.3167 16.3375 17.9583 16.1625 17.575C15.9875 17.1917 15.6833 17 15.25 17C15.1167 17 14.9792 17.0292 14.8375 17.0875C14.6958 17.1458 14.5833 17.2333 14.5 17.35L12.75 19.35C12.5333 19.6 12.4583 19.8833 12.525 20.2C12.5917 20.5167 12.7667 20.75 13.05 20.9L13.9 21.325Z" fill="#FFAC24"/>
<path d="M7.89999 21.325L6.99999 22.35C6.71666 22.6833 6.66249 23.0417 6.83749 23.425C7.01249 23.8083 7.31666 24 7.74999 24C7.88333 24 8.02083 23.9708 8.16249 23.9125C8.30416 23.8542 8.41666 23.7667 8.49999 23.65L10.25 21.65C10.4667 21.4 10.5417 21.1167 10.475 20.8C10.4083 20.4833 10.2333 20.25 9.94999 20.1L9.09999 19.675L9.99999 18.65C10.2833 18.3167 10.3375 17.9583 10.1625 17.575C9.98749 17.1917 9.68333 17 9.24999 17C9.11666 17 8.97916 17.0292 8.83749 17.0875C8.69583 17.1458 8.58333 17.2333 8.49999 17.35L6.74999 19.35C6.53333 19.6 6.45833 19.8833 6.52499 20.2C6.59166 20.5167 6.76666 20.75 7.04999 20.9L7.89999 21.325Z" fill="#FFAC24"/>
</g>
</svg>
