<svg width="32" height="32" viewBox="0 0 32 32" fill="none" xmlns="http://www.w3.org/2000/svg">
<mask id="mask0_1182_20657" style="mask-type:alpha" maskUnits="userSpaceOnUse" x="-1" y="0" width="33" height="33">
<rect x="-0.215088" y="0.201172" width="32" height="32" fill="#D9D9D9"/>
</mask>
<g mask="url(#mask0_1182_20657)">
<path d="M15.785 6.868C15.4072 6.868 15.0905 6.74022 14.835 6.48467C14.5794 6.22911 14.4516 5.91245 14.4516 5.53467V2.868C14.4516 2.49022 14.5794 2.17356 14.835 1.918C15.0905 1.66245 15.4072 1.53467 15.785 1.53467C16.1627 1.53467 16.4794 1.66245 16.735 1.918C16.9905 2.17356 17.1183 2.49022 17.1183 2.868V5.53467C17.1183 5.91245 16.9905 6.22911 16.735 6.48467C16.4794 6.74022 16.1627 6.868 15.785 6.868ZM22.385 9.60133C22.1405 9.35689 22.0183 9.05133 22.0183 8.68467C22.0183 8.318 22.1405 8.00133 22.385 7.73467L24.2516 5.83467C24.5183 5.568 24.835 5.43467 25.2016 5.43467C25.5683 5.43467 25.885 5.568 26.1516 5.83467C26.3961 6.07911 26.5183 6.39022 26.5183 6.768C26.5183 7.14578 26.3961 7.45689 26.1516 7.70133L24.2516 9.60133C24.0072 9.84578 23.6961 9.968 23.3183 9.968C22.9405 9.968 22.6294 9.84578 22.385 9.60133ZM26.4516 17.5347C26.0738 17.5347 25.7572 17.4069 25.5016 17.1513C25.2461 16.8958 25.1183 16.5791 25.1183 16.2013C25.1183 15.8236 25.2461 15.5069 25.5016 15.2513C25.7572 14.9958 26.0738 14.868 26.4516 14.868H29.1183C29.4961 14.868 29.8127 14.9958 30.0683 15.2513C30.3238 15.5069 30.4516 15.8236 30.4516 16.2013C30.4516 16.5791 30.3238 16.8958 30.0683 17.1513C29.8127 17.4069 29.4961 17.5347 29.1183 17.5347H26.4516ZM15.785 30.868C15.4072 30.868 15.0905 30.7402 14.835 30.4847C14.5794 30.2291 14.4516 29.9124 14.4516 29.5347V26.868C14.4516 26.4902 14.5794 26.1736 14.835 25.918C15.0905 25.6624 15.4072 25.5347 15.785 25.5347C16.1627 25.5347 16.4794 25.6624 16.735 25.918C16.9905 26.1736 17.1183 26.4902 17.1183 26.868V29.5347C17.1183 29.9124 16.9905 30.2291 16.735 30.4847C16.4794 30.7402 16.1627 30.868 15.785 30.868ZM7.31829 9.60133L5.41829 7.73467C5.15162 7.468 5.01829 7.14578 5.01829 6.768C5.01829 6.39022 5.15162 6.07911 5.41829 5.83467C5.66273 5.59022 5.97384 5.468 6.35162 5.468C6.7294 5.468 7.04051 5.59022 7.28495 5.83467L9.18495 7.73467C9.4294 7.97911 9.55162 8.29022 9.55162 8.668C9.55162 9.04578 9.4294 9.35689 9.18495 9.60133C8.91829 9.84578 8.60717 9.968 8.25162 9.968C7.89606 9.968 7.58495 9.84578 7.31829 9.60133ZM24.2516 26.568L22.385 24.668C22.1405 24.4013 22.0183 24.0847 22.0183 23.718C22.0183 23.3513 22.1405 23.0458 22.385 22.8013C22.6294 22.5569 22.935 22.4347 23.3016 22.4347C23.6683 22.4347 23.985 22.5569 24.2516 22.8013L26.1516 24.668C26.4183 24.9124 26.5461 25.2236 26.535 25.6013C26.5238 25.9791 26.3961 26.3013 26.1516 26.568C25.885 26.8347 25.5627 26.968 25.185 26.968C24.8072 26.968 24.4961 26.8347 24.2516 26.568ZM2.45162 17.5347C2.07384 17.5347 1.75717 17.4069 1.50162 17.1513C1.24606 16.8958 1.11829 16.5791 1.11829 16.2013C1.11829 15.8236 1.24606 15.5069 1.50162 15.2513C1.75717 14.9958 2.07384 14.868 2.45162 14.868H5.11829C5.49606 14.868 5.81273 14.9958 6.06829 15.2513C6.32384 15.5069 6.45162 15.8236 6.45162 16.2013C6.45162 16.5791 6.32384 16.8958 6.06829 17.1513C5.81273 17.4069 5.49606 17.5347 5.11829 17.5347H2.45162ZM5.41829 26.568C5.17384 26.3236 5.05162 26.0124 5.05162 25.6347C5.05162 25.2569 5.17384 24.9458 5.41829 24.7013L7.31829 22.8013C7.56273 22.5569 7.86829 22.4347 8.23495 22.4347C8.60162 22.4347 8.91829 22.5569 9.18495 22.8013C9.45162 23.068 9.58495 23.3847 9.58495 23.7513C9.58495 24.118 9.45162 24.4347 9.18495 24.7013L7.31829 26.568C7.05162 26.8347 6.7294 26.968 6.35162 26.968C5.97384 26.968 5.66273 26.8347 5.41829 26.568ZM15.785 24.2013C13.5627 24.2013 11.6738 23.4236 10.1183 21.868C8.56273 20.3124 7.78495 18.4236 7.78495 16.2013C7.78495 13.9791 8.56273 12.0902 10.1183 10.5347C11.6738 8.97911 13.5627 8.20133 15.785 8.20133C18.0072 8.20133 19.8961 8.97911 21.4516 10.5347C23.0072 12.0902 23.785 13.9791 23.785 16.2013C23.785 18.4236 23.0072 20.3124 21.4516 21.868C19.8961 23.4236 18.0072 24.2013 15.785 24.2013Z" fill="#FFAC24"/>
</g>
</svg>
