<svg width="28" height="10" viewBox="0 0 28 10" fill="none" xmlns="http://www.w3.org/2000/svg">
<path d="M3.70801 7.64765H2.52148V4.34005C2.52148 3.24391 3.42096 2.35181 4.52663 2.35181H6.08107V3.52811H4.52663C4.07515 3.52811 3.70801 3.89247 3.70801 4.33967V7.64765Z" fill="#024E92"/>
<path d="M3.13469 9.99922H3.09484C1.47037 9.99922 0.148438 8.68868 0.148438 7.07783V4.70337H1.33497V7.07783C1.33497 8.04012 2.12418 8.82292 3.09484 8.82292H3.13469C4.10495 8.82292 4.89456 8.04012 4.89456 7.07783V4.70337H6.08108V7.07783C6.08108 8.68868 4.75954 9.99922 3.13469 9.99922Z" fill="#024E92"/>
<path d="M1.33497 3.52719H0.148438V3.38605C0.148438 1.51786 1.68122 -0.00170898 3.56566 -0.00170898H5.49033V1.17459H3.56566C2.3358 1.17459 1.33497 2.1668 1.33497 3.38605V3.52719Z" fill="#024E92"/>
<path d="M23.2607 2.72028C22.9578 2.48594 22.5311 2.36743 21.9922 2.36743C21.6068 2.36743 21.1643 2.4288 20.6772 2.54999L20.6358 2.56035L20.5487 2.58183L20.5685 2.66851L20.6791 3.15406L20.6996 3.24381L20.7901 3.22233L20.8435 3.20929C21.2807 3.10037 21.6668 3.04514 21.9925 3.04514C22.4672 3.04514 22.7152 3.15981 22.8398 3.25608C23.0073 3.38572 23.0885 3.58746 23.0885 3.8728V5.4545C23.0885 5.72029 22.8703 5.93622 22.6026 5.93622H21.3488C21.0807 5.93622 20.8629 5.72029 20.8629 5.4545V5.12083C20.8629 4.85504 21.0811 4.63872 21.3488 4.63872H22.4309H22.5226V4.54821V4.05038V3.95948H22.4309H21.3488C20.7031 3.95948 20.1777 4.48071 20.1777 5.12083V5.4545C20.1777 6.09501 20.7031 6.61584 21.3488 6.61584H22.6026C23.2483 6.61584 23.7741 6.09501 23.7741 5.4545V3.8728C23.7733 3.37114 23.6008 2.98339 23.2607 2.72028Z" fill="#024E92"/>
<path d="M17.9325 2.35974H17.3026C16.6318 2.35974 16.0859 2.90091 16.0859 3.56596V7.54858V7.6391H16.1776H16.6794H16.7711V7.54858V3.56596C16.7711 3.27562 17.0094 3.03898 17.3023 3.03898H17.9321C18.5213 3.03898 19.0006 3.51418 19.0006 4.0983V4.60457C19.0006 5.18869 18.5213 5.66389 17.9321 5.66389H17.4802H17.3885V5.75479V6.25262V6.34352H17.4802H17.9329C18.9 6.34352 19.6865 5.56341 19.6865 4.60495V4.09869C19.6861 3.13947 18.8996 2.35974 17.9325 2.35974Z" fill="#024E92"/>
<path d="M14.3444 2.35962C13.713 2.35962 13.1992 2.86895 13.1992 3.49488V6.52519V6.6157H13.2909H13.7931H13.8848V6.52519V3.49488C13.8848 3.24328 14.091 3.03886 14.3444 3.03886H15.3699H15.4616V2.94835V2.45052V2.35962H15.3699H14.3444Z" fill="#024E92"/>
<path d="M11.7291 2.36353H11.6374V2.45442V4.97348C11.6374 5.50774 11.1987 5.94267 10.6598 5.94267H10.1077C9.56878 5.94267 9.13007 5.50774 9.13007 4.97348V2.45442V2.36353H9.03877H8.53661H8.44531V2.45442V4.97348C8.44531 5.88246 9.1912 6.62229 10.1085 6.62229H10.6605C11.5774 6.62229 12.3237 5.88284 12.3237 4.97348V2.45442V2.36353H12.232H11.7291Z" fill="#024E92"/>
<path d="M27.9249 4.46254V2.45013V2.35962H27.8332H27.3311H27.2394V2.45013V4.81808C27.2394 5.28484 26.8564 5.66454 26.3856 5.66454H25.9554C25.4846 5.66454 25.1015 5.28484 25.1015 4.81808V2.45013V2.35962H25.0099H24.5077H24.416V2.45013V4.81808C24.416 5.65955 25.1066 6.34416 25.955 6.34416H26.3852C26.6904 6.34416 26.9879 6.25365 27.2398 6.08642V6.13513C27.2398 6.42048 27.1581 6.62222 26.9906 6.75186C26.8661 6.84812 26.6173 6.9628 26.143 6.9628C25.8176 6.9628 25.4312 6.90757 24.9952 6.79865L24.9406 6.78561L24.8505 6.76375L24.83 6.85388L24.7201 7.33943L24.7004 7.42649L24.7874 7.44759L24.8292 7.45794C25.3159 7.57876 25.7581 7.64012 26.1438 7.64012C26.6831 7.64012 27.1102 7.52161 27.4127 7.28727C27.7532 7.02417 27.9257 6.63641 27.9257 6.13513V4.55344V4.46254H27.9249Z" fill="#024E92"/>
</svg>
