<svg width="25" height="9" viewBox="0 0 25 9" fill="none" xmlns="http://www.w3.org/2000/svg">
<path fill-rule="evenodd" clip-rule="evenodd" d="M6.62932 8.25913H4.52111L2.94022 2.19326C2.86518 1.91423 2.70586 1.66755 2.4715 1.55129C1.88663 1.25912 1.24214 1.02659 0.539062 0.909317V0.675781H3.93522C4.40393 0.675781 4.75547 1.02659 4.81406 1.43402L5.63432 5.80953L7.7415 0.675781H9.79111L6.62932 8.25913ZM10.9627 8.25913H8.97168L10.6112 0.675781H12.6022L10.9627 8.25913ZM15.1783 2.77571C15.2369 2.36728 15.5884 2.13374 15.9986 2.13374C16.643 2.07511 17.3451 2.19238 17.931 2.48354L18.2825 0.85081C17.6966 0.617274 17.0521 0.5 16.4673 0.5C14.5348 0.5 13.1287 1.55041 13.1287 3.00824C13.1287 4.11728 14.1247 4.69961 14.8278 5.05042C15.5884 5.40022 15.8814 5.63375 15.8228 5.98355C15.8228 6.50825 15.2369 6.74178 14.652 6.74178C13.9489 6.74178 13.2459 6.56688 12.6024 6.27471L12.2509 7.90845C12.9539 8.19962 13.7146 8.31689 14.4177 8.31689C16.5845 8.37452 17.931 7.32512 17.931 5.75001C17.931 3.76647 15.1783 3.65021 15.1783 2.77571ZM24.8987 8.25913L23.3178 0.675781H21.6198C21.2682 0.675781 20.9167 0.909317 20.7995 1.25912L17.8721 8.25913H19.9217L20.3308 7.1511H22.8491L23.0835 8.25913H24.8987ZM21.913 2.7168L22.4979 5.57484H20.8584L21.913 2.7168Z" fill="#172B85"/>
</svg>
