<svg width="32" height="32" viewBox="0 0 32 32" fill="none" xmlns="http://www.w3.org/2000/svg">
<mask id="mask0_1182_20656" style="mask-type:alpha" maskUnits="userSpaceOnUse" x="0" y="0" width="32" height="32">
<rect width="32" height="32" fill="#D9D9D9"/>
</mask>
<g mask="url(#mask0_1182_20656)">
<path d="M15.3333 26.6667C14.6222 26.6667 13.9611 26.4889 13.35 26.1333C12.7388 25.7778 12.2444 25.2889 11.8666 24.6667C11.6222 24.2222 11.6166 23.7778 11.85 23.3333C12.0833 22.8889 12.4444 22.6667 12.9333 22.6667C13.2222 22.6667 13.4777 22.7556 13.7 22.9333C13.9222 23.1111 14.1222 23.3111 14.3 23.5333C14.4111 23.6889 14.5611 23.8056 14.75 23.8833C14.9388 23.9611 15.1333 24 15.3333 24C15.7111 24 16.0277 23.8722 16.2833 23.6167C16.5388 23.3611 16.6666 23.0444 16.6666 22.6667C16.6666 22.2889 16.5388 21.9722 16.2833 21.7167C16.0277 21.4611 15.7111 21.3333 15.3333 21.3333H3.99996C3.62218 21.3333 3.30551 21.2056 3.04996 20.95C2.7944 20.6944 2.66663 20.3778 2.66663 20C2.66663 19.6222 2.7944 19.3056 3.04996 19.05C3.30551 18.7944 3.62218 18.6667 3.99996 18.6667H15.3333C16.4444 18.6667 17.3888 19.0556 18.1666 19.8333C18.9444 20.6111 19.3333 21.5556 19.3333 22.6667C19.3333 23.7778 18.9444 24.7222 18.1666 25.5C17.3888 26.2778 16.4444 26.6667 15.3333 26.6667ZM3.99996 13.3333C3.62218 13.3333 3.30551 13.2056 3.04996 12.95C2.7944 12.6944 2.66663 12.3778 2.66663 12C2.66663 11.6222 2.7944 11.3056 3.04996 11.05C3.30551 10.7944 3.62218 10.6667 3.99996 10.6667H20.6666C21.2222 10.6667 21.6944 10.4722 22.0833 10.0833C22.4722 9.69444 22.6666 9.22222 22.6666 8.66667C22.6666 8.11111 22.4722 7.63889 22.0833 7.25C21.6944 6.86111 21.2222 6.66667 20.6666 6.66667C20.3111 6.66667 19.9777 6.75 19.6666 6.91667C19.3555 7.08333 19.1111 7.32222 18.9333 7.63333C18.7777 7.9 18.5888 8.13889 18.3666 8.35C18.1444 8.56111 17.8777 8.66667 17.5666 8.66667C17.1222 8.66667 16.7611 8.5 16.4833 8.16667C16.2055 7.83333 16.1333 7.47778 16.2666 7.1C16.5777 6.16667 17.1388 5.41667 17.95 4.85C18.7611 4.28333 19.6666 4 20.6666 4C21.9555 4 23.0555 4.45556 23.9666 5.36667C24.8777 6.27778 25.3333 7.37778 25.3333 8.66667C25.3333 9.95556 24.8777 11.0556 23.9666 11.9667C23.0555 12.8778 21.9555 13.3333 20.6666 13.3333H3.99996ZM26.6 23.6C26.1555 23.8 25.7222 23.7722 25.3 23.5167C24.8777 23.2611 24.6666 22.8889 24.6666 22.4C24.6666 22.0889 24.7722 21.8278 24.9833 21.6167C25.1944 21.4056 25.4333 21.2222 25.7 21.0667C26.0111 20.8889 26.25 20.6444 26.4166 20.3333C26.5833 20.0222 26.6666 19.6889 26.6666 19.3333C26.6666 18.7778 26.4722 18.3056 26.0833 17.9167C25.6944 17.5278 25.2222 17.3333 24.6666 17.3333H3.99996C3.62218 17.3333 3.30551 17.2056 3.04996 16.95C2.7944 16.6944 2.66663 16.3778 2.66663 16C2.66663 15.6222 2.7944 15.3056 3.04996 15.05C3.30551 14.7944 3.62218 14.6667 3.99996 14.6667H24.6666C25.9555 14.6667 27.0555 15.1222 27.9666 16.0333C28.8777 16.9444 29.3333 18.0444 29.3333 19.3333C29.3333 20.2667 29.0888 21.1167 28.6 21.8833C28.1111 22.65 27.4444 23.2222 26.6 23.6Z" fill="#A8A8A8"/>
</g>
</svg>
